<?xml version="1.0" encoding="UTF-8"?>
<svg id="_레이어_1" data-name="레이어 1" xmlns="http://www.w3.org/2000/svg" viewBox="0 0 80 80">
  <defs>
    <style>
      .cls-1 {
        fill: #383838;
        stroke-width: 0px;
      }
    </style>
  </defs>
  <path class="cls-1" d="M54.67,53.73h-29.34c0,.47,0,.91,0,1.35,0,1.81,0,3.62,0,5.43,0,.75-.26,1-1.01,1-2.09,0-4.18,0-6.27,0-.74,0-1-.27-1-1.02,0-4.24-.02-8.47,0-12.71.02-2.33.92-4.32,2.61-5.92.27-.26.38-.5.38-.86-.01-3.88.02-7.76-.02-11.65-.02-1.73.42-3.24,1.78-4.47-.16-.19-.31-.38-.45-.56-1.15-1.44-.98-3.42.4-4.56,1.35-1.12,3.32-.95,4.52.42.9,1.03,1.79,2.06,2.63,3.13.38.49.78.69,1.41.67,1.25-.05,2.49-.01,3.78-.01.22-1.82,1-3.3,2.47-4.37,1.01-.74,2.15-1.1,3.4-1.11,1.57-.01,2.92.52,4.07,1.58,1.13,1.04,1.71,2.37,1.9,3.9,1.5,0,2.95.01,4.41-.02.18,0,.38-.2.52-.36,1-1.16,1.96-2.35,2.97-3.5.84-.95,1.93-1.26,3.15-.96,1.22.3,2.03,1.09,2.34,2.31.26,1.02.05,1.96-.6,2.79-.16.2-.33.4-.52.63.91.84,1.5,1.83,1.68,3.04.07.44.08.89.08,1.34,0,3.9,0,7.8,0,11.7,0,.38.1.65.38.92,1.69,1.61,2.59,3.59,2.61,5.92.03,4.24.01,8.47,0,12.71,0,.75-.26,1.01-1,1.02-2.09,0-4.18,0-6.27,0-.75,0-1.01-.25-1.01-1,0-2.03,0-4.07,0-6.1,0-.2,0-.41,0-.68ZM61.35,59.95c.01-.15.04-.29.04-.44,0-3.92.05-7.84-.02-11.76-.05-2.71-1.35-4.76-3.8-5.93-5.01-2.39-10.3-3.71-15.85-3.93-6.62-.27-12.94.99-18.96,3.77-2.76,1.27-4.14,3.43-4.15,6.45-.01,3.73,0,7.46,0,11.2,0,.2,0,.4,0,.61h5.16c0-.24,0-.45,0-.65,0-2,0-3.99,0-5.99,0-.89.23-1.12,1.13-1.12,10.08,0,20.15,0,30.23,0,.86,0,1.1.24,1.1,1.09,0,2.03,0,4.07,0,6.1,0,.19,0,.39,0,.6h5.12ZM57.97,22.29c-.14-.97-.83-1.65-1.73-1.69-.72-.03-1.16.39-1.59.89-3.33,3.95-6.67,7.9-9.99,11.86-.34.41-.71.59-1.25.58-2.3-.02-4.59-.02-6.89,0-.47,0-.81-.14-1.11-.51-2.31-2.76-4.64-5.51-6.97-8.26-1.12-1.33-2.24-2.65-3.37-3.97-.54-.63-1.34-.78-2.03-.43-.65.33-1.03,1.04-.85,1.78.09.36.31.72.55,1.01,3.6,4.28,7.22,8.55,10.83,12.83.22.26.41.34.76.3,3.42-.47,6.85-.58,10.27-.1,1.18.17,1.84-.13,2.56-1.03,1.93-2.44,3.97-4.8,5.97-7.19,1.35-1.6,2.73-3.16,4.07-4.77.32-.38.51-.87.76-1.3ZM40,20.04c-2.43,0-4.37,1.94-4.37,4.37,0,2.41,1.97,4.38,4.37,4.38,2.41,0,4.37-1.97,4.37-4.38,0-2.42-1.95-4.37-4.38-4.36ZM30.9,25.53c.03.12.03.17.06.19,1.8,2.14,3.61,4.28,5.43,6.4.13.15.41.24.62.24,1.98.02,3.95,0,5.93.02.37,0,.61-.12.85-.4,1.55-1.86,3.12-3.71,4.69-5.56.22-.26.44-.53.73-.89-1.05,0-1.96.02-2.87,0-.39-.01-.53.11-.64.49-.81,2.89-3.59,4.72-6.55,4.26-2.51-.39-4.11-1.88-4.86-4.29-.07-.23-.08-.46-.44-.45-.97.02-1.94,0-2.95,0ZM21.59,40.44c.92-.38,1.77-.77,2.63-1.09.39-.14.49-.35.49-.74-.02-2.44-.04-4.89.01-7.33.01-.69.25-1.38.38-2.07.03-.13.09-.33.03-.4-.75-.92-1.52-1.81-2.29-2.73-.96.83-1.26,1.85-1.25,3,.01,3.58,0,7.16,0,10.74,0,.18,0,.37,0,.61ZM58.4,40.44c0-.27,0-.47,0-.68,0-2.44,0-4.88,0-7.33,0-1.3.02-2.61-.03-3.91-.03-.97-.45-1.77-1.22-2.42-.77.91-1.51,1.77-2.22,2.65-.08.09-.06.3-.04.44.13.76.39,1.52.41,2.28.05,2.4.01,4.81.03,7.21,0,.19.12.49.27.56.89.42,1.81.78,2.81,1.2ZM26.46,30.37s-.08.03-.13.05v8.06c1.89-.5,3.78-.99,5.72-1.5-1.88-2.22-3.74-4.42-5.59-6.61ZM53.68,30.4s-.09-.03-.13-.04c-1.86,2.21-3.73,4.42-5.59,6.62,1.96.52,3.86,1.01,5.72,1.5v-8.08Z"/>
</svg>