<?xml version="1.0" encoding="UTF-8"?>
<svg id="_레이어_1" data-name="레이어 1" xmlns="http://www.w3.org/2000/svg" viewBox="0 0 280 280">
  <defs>
    <style>
      .cls-1 {
        fill: #000;
        stroke-width: 0px;
      }
    </style>
  </defs>
  <path class="cls-1" d="M140,19.25c-.4,0-.73-.33-.73-.73V3.23c0-.4.33-.73.73-.73s.73.33.73.73v15.3c0,.4-.33.73-.73.73Z"/>
  <path class="cls-1" d="M79.26,35.53c-.25,0-.5-.13-.63-.36l-7.65-13.25c-.2-.35-.08-.79.27-.99.35-.2.79-.08.99.27l7.65,13.25c.2.35.08.79-.27.99-.11.07-.24.1-.36.1Z"/>
  <path class="cls-1" d="M34.8,79.99c-.12,0-.25-.03-.36-.1l-13.25-7.65c-.35-.2-.47-.65-.27-.99.2-.35.65-.47.99-.27l13.25,7.65c.35.2.47.65.27.99-.13.23-.38.36-.63.36Z"/>
  <path class="cls-1" d="M18.53,140.73H3.23c-.4,0-.73-.33-.73-.73s.33-.73.73-.73h15.3c.4,0,.73.33.73.73s-.33.73-.73.73Z"/>
  <path class="cls-1" d="M21.55,209.11c-.25,0-.5-.13-.63-.36-.2-.35-.08-.79.27-.99l13.25-7.65c.35-.2.79-.08.99.27.2.35.08.79-.27.99l-13.25,7.65c-.11.07-.24.1-.36.1Z"/>
  <path class="cls-1" d="M71.61,259.18c-.12,0-.25-.03-.36-.1-.35-.2-.47-.65-.27-.99l7.65-13.25c.2-.35.65-.47.99-.27.35.2.47.65.27.99l-7.65,13.25c-.13.23-.38.36-.63.36Z"/>
  <path class="cls-1" d="M140,277.5c-.4,0-.73-.33-.73-.73v-15.3c0-.4.33-.73.73-.73s.73.33.73.73v15.3c0,.4-.33.73-.73.73Z"/>
  <path class="cls-1" d="M208.39,259.18c-.25,0-.5-.13-.63-.36l-7.65-13.25c-.2-.35-.08-.79.27-.99.35-.2.79-.08.99.27l7.65,13.25c.2.35.08.79-.27.99-.11.07-.24.1-.36.1Z"/>
  <path class="cls-1" d="M258.45,209.11c-.12,0-.25-.03-.36-.1l-13.25-7.65c-.35-.2-.47-.65-.27-.99.2-.35.65-.47.99-.27l13.25,7.65c.35.2.47.65.27.99-.13.23-.38.36-.63.36Z"/>
  <path class="cls-1" d="M276.77,140.73h-15.3c-.4,0-.73-.33-.73-.73s.33-.73.73-.73h15.3c.4,0,.73.33.73.73s-.33.73-.73.73Z"/>
  <path class="cls-1" d="M245.2,79.99c-.25,0-.5-.13-.63-.36-.2-.35-.08-.79.27-.99l13.25-7.65c.35-.2.79-.08.99.27.2.35.08.79-.27.99l-13.25,7.65c-.11.07-.24.1-.36.1Z"/>
  <path class="cls-1" d="M200.74,35.53c-.12,0-.25-.03-.36-.1-.35-.2-.47-.65-.27-.99l7.65-13.25c.2-.35.65-.47.99-.27.35.2.47.65.27.99l-7.65,13.25c-.13.23-.38.36-.63.36Z"/>
  <path class="cls-1" d="M152.58,20.55s-.02,0-.03,0c-.13-.01-.23-.13-.22-.27l1.02-9.7c.01-.13.13-.23.27-.22.13.01.23.13.22.27l-1.02,9.7c-.01.12-.12.22-.24.22Z"/>
  <path class="cls-1" d="M127.42,20.55c-.12,0-.23-.09-.24-.22l-1.02-9.7c-.01-.13.08-.25.22-.27.13-.02.25.08.27.22l1.02,9.7c.01.13-.08.25-.22.27,0,0-.02,0-.03,0Z"/>
  <path class="cls-1" d="M114.98,22.52c-.11,0-.21-.08-.24-.19l-2.03-9.54c-.03-.13.06-.26.19-.29.13-.03.26.06.29.19l2.03,9.54c.03.13-.06.26-.19.29-.02,0-.03,0-.05,0Z"/>
  <path class="cls-1" d="M102.81,25.78c-.1,0-.2-.07-.23-.17l-3.01-9.28c-.04-.13.03-.26.16-.31.13-.04.26.03.31.16l3.01,9.28c.04.13-.03.26-.16.31-.02,0-.05.01-.07.01Z"/>
  <path class="cls-1" d="M91.05,30.29c-.09,0-.18-.05-.22-.14l-3.97-8.91c-.05-.12,0-.27.12-.32.12-.05.27,0,.32.12l3.97,8.91c.05.12,0,.27-.12.32-.03.01-.07.02-.1.02Z"/>
  <path class="cls-1" d="M69.26,42.87c-.08,0-.15-.03-.2-.1l-5.73-7.89c-.08-.11-.05-.26.05-.34.11-.08.26-.06.34.05l5.73,7.89c.08.11.05.26-.05.34-.04.03-.09.05-.14.05Z"/>
  <path class="cls-1" d="M59.47,50.8c-.07,0-.13-.03-.18-.08l-6.53-7.25c-.09-.1-.08-.25.02-.34.1-.09.25-.08.34.02l6.53,7.25c.09.1.08.25-.02.34-.05.04-.1.06-.16.06Z"/>
  <path class="cls-1" d="M50.56,59.71c-.06,0-.12-.02-.16-.06l-7.25-6.53c-.1-.09-.11-.24-.02-.34s.24-.11.34-.02l7.25,6.53c.1.09.11.24.02.34-.05.05-.11.08-.18.08Z"/>
  <path class="cls-1" d="M42.63,69.5s-.1-.01-.14-.05l-7.89-5.73c-.11-.08-.13-.23-.05-.34.08-.11.23-.13.34-.05l7.89,5.73c.11.08.13.23.05.34-.05.07-.12.1-.2.1Z"/>
  <path class="cls-1" d="M30.05,91.29s-.07,0-.1-.02l-8.91-3.97c-.12-.05-.18-.2-.12-.32.05-.12.2-.18.32-.12l8.91,3.97c.12.05.18.2.12.32-.04.09-.13.14-.22.14Z"/>
  <path class="cls-1" d="M25.54,103.05s-.05,0-.07-.01l-9.28-3.01c-.13-.04-.2-.18-.16-.31.04-.13.18-.2.31-.16l9.28,3.01c.13.04.2.18.16.31-.03.1-.13.17-.23.17Z"/>
  <path class="cls-1" d="M22.28,115.22s-.03,0-.05,0l-9.54-2.03c-.13-.03-.21-.16-.19-.29.03-.13.16-.21.29-.19l9.54,2.03c.13.03.21.16.19.29-.02.11-.13.19-.24.19Z"/>
  <path class="cls-1" d="M20.31,127.66s-.02,0-.03,0l-9.7-1.02c-.13-.01-.23-.13-.22-.27.01-.13.14-.23.27-.22l9.7,1.02c.13.01.23.13.22.27-.01.12-.12.22-.24.22Z"/>
  <path class="cls-1" d="M10.61,153.84c-.12,0-.23-.09-.24-.22-.01-.13.08-.25.22-.27l9.7-1.02c.13-.01.25.08.27.22.01.13-.08.25-.22.27l-9.7,1.02s-.02,0-.03,0Z"/>
  <path class="cls-1" d="M12.74,167.29c-.11,0-.21-.08-.24-.19-.03-.13.06-.26.19-.29l9.54-2.03c.13-.03.26.06.29.19.03.13-.06.26-.19.29l-9.54,2.03s-.03,0-.05,0Z"/>
  <path class="cls-1" d="M16.26,180.45c-.1,0-.2-.06-.23-.17-.04-.13.03-.26.16-.31l9.28-3.01c.13-.04.26.03.31.16.04.13-.03.26-.16.31l-9.28,3.01s-.05.01-.07.01Z"/>
  <path class="cls-1" d="M21.14,193.16c-.09,0-.18-.05-.22-.14-.05-.12,0-.27.12-.32l8.91-3.97c.12-.05.27,0,.32.12.05.12,0,.27-.12.32l-8.91,3.97s-.07.02-.1.02Z"/>
  <path class="cls-1" d="M34.74,216.72c-.08,0-.15-.03-.2-.1-.08-.11-.05-.26.05-.34l7.89-5.73c.11-.08.26-.05.34.05s.05.26-.05.34l-7.89,5.73s-.09.05-.14.05Z"/>
  <path class="cls-1" d="M43.31,227.3c-.07,0-.13-.03-.18-.08-.09-.1-.08-.25.02-.34l7.25-6.53c.1-.09.25-.08.34.02.09.1.08.25-.02.34l-7.25,6.53s-.1.06-.16.06Z"/>
  <path class="cls-1" d="M52.94,236.93c-.06,0-.12-.02-.16-.06-.1-.09-.11-.24-.02-.34l6.53-7.25c.09-.1.24-.11.34-.02.1.09.11.24.02.34l-6.53,7.25c-.05.05-.11.08-.18.08Z"/>
  <path class="cls-1" d="M63.52,245.5s-.1-.02-.14-.05c-.11-.08-.13-.23-.05-.34l5.73-7.89c.08-.11.23-.13.34-.05.11.08.13.23.05.34l-5.73,7.89c-.05.07-.12.1-.2.1Z"/>
  <path class="cls-1" d="M87.08,259.1s-.07,0-.1-.02c-.12-.05-.18-.2-.12-.32l3.97-8.91c.05-.12.2-.18.32-.12.12.05.18.2.12.32l-3.97,8.91c-.04.09-.13.14-.22.14Z"/>
  <path class="cls-1" d="M99.79,263.98s-.05,0-.07-.01c-.13-.04-.2-.18-.16-.31l3.01-9.28c.04-.13.18-.2.31-.16.13.04.2.18.16.31l-3.01,9.28c-.03.1-.13.17-.23.17Z"/>
  <path class="cls-1" d="M112.95,267.51s-.03,0-.05,0c-.13-.03-.21-.16-.19-.29l2.03-9.54c.03-.13.16-.21.29-.19.13.03.21.16.19.29l-2.03,9.54c-.02.11-.13.19-.24.19Z"/>
  <path class="cls-1" d="M126.4,269.64s-.02,0-.03,0c-.13-.01-.23-.13-.22-.27l1.02-9.7c.01-.13.14-.23.27-.22.13.01.23.13.22.27l-1.02,9.7c-.01.12-.12.22-.24.22Z"/>
  <path class="cls-1" d="M153.6,269.64c-.12,0-.23-.09-.24-.22l-1.02-9.7c-.01-.13.08-.25.22-.27.14-.01.25.08.27.22l1.02,9.7c.01.13-.08.25-.22.27,0,0-.02,0-.03,0Z"/>
  <path class="cls-1" d="M167.05,267.51c-.11,0-.21-.08-.24-.19l-2.03-9.54c-.03-.13.06-.26.19-.29.13-.02.26.06.29.19l2.03,9.54c.03.13-.06.26-.19.29-.02,0-.03,0-.05,0Z"/>
  <path class="cls-1" d="M180.21,263.98c-.1,0-.2-.06-.23-.17l-3.01-9.28c-.04-.13.03-.26.16-.31.13-.04.26.03.31.16l3.01,9.28c.04.13-.03.26-.16.31-.02,0-.05.01-.07.01Z"/>
  <path class="cls-1" d="M192.92,259.1c-.09,0-.18-.05-.22-.14l-3.97-8.91c-.05-.12,0-.27.12-.32.12-.05.27,0,.32.12l3.97,8.91c.05.12,0,.27-.12.32-.03.01-.07.02-.1.02Z"/>
  <path class="cls-1" d="M216.47,245.5c-.07,0-.15-.03-.2-.1l-5.73-7.89c-.08-.11-.05-.26.05-.34.11-.08.26-.06.34.05l5.73,7.89c.08.11.05.26-.05.34-.04.03-.09.05-.14.05Z"/>
  <path class="cls-1" d="M227.06,236.93c-.07,0-.13-.03-.18-.08l-6.53-7.25c-.09-.1-.08-.25.02-.34.1-.09.25-.08.34.02l6.53,7.25c.09.1.08.25-.02.34-.05.04-.1.06-.16.06Z"/>
  <path class="cls-1" d="M236.69,227.3c-.06,0-.12-.02-.16-.06l-7.25-6.53c-.1-.09-.11-.24-.02-.34.09-.1.24-.11.34-.02l7.25,6.53c.1.09.11.24.02.34-.05.05-.11.08-.18.08Z"/>
  <path class="cls-1" d="M245.26,216.72s-.1-.02-.14-.05l-7.89-5.73c-.11-.08-.13-.23-.05-.34.08-.11.23-.13.34-.05l7.89,5.73c.11.08.13.23.05.34-.05.07-.12.1-.2.1Z"/>
  <path class="cls-1" d="M258.86,193.16s-.07,0-.1-.02l-8.91-3.97c-.12-.05-.18-.2-.12-.32.05-.12.2-.18.32-.12l8.91,3.97c.12.05.18.2.12.32-.04.09-.13.14-.22.14Z"/>
  <path class="cls-1" d="M263.74,180.45s-.05,0-.07-.01l-9.28-3.01c-.13-.04-.2-.18-.16-.31s.18-.2.31-.16l9.28,3.01c.13.04.2.18.16.31-.03.1-.13.17-.23.17Z"/>
  <path class="cls-1" d="M267.26,167.29s-.03,0-.05,0l-9.54-2.03c-.13-.03-.22-.16-.19-.29.03-.13.16-.21.29-.19l9.54,2.03c.13.03.22.16.19.29-.02.11-.13.19-.24.19Z"/>
  <path class="cls-1" d="M269.39,153.84s-.02,0-.03,0l-9.7-1.02c-.13-.01-.23-.13-.22-.27.01-.13.13-.23.27-.22l9.7,1.02c.13.01.23.13.22.27-.01.12-.12.22-.24.22Z"/>
  <path class="cls-1" d="M259.69,127.66c-.12,0-.23-.09-.24-.22-.01-.13.08-.25.22-.27l9.7-1.02c.14-.02.25.08.27.22.01.13-.08.25-.22.27l-9.7,1.02s-.02,0-.03,0Z"/>
  <path class="cls-1" d="M257.72,115.22c-.11,0-.21-.08-.24-.19-.03-.13.06-.26.19-.29l9.54-2.03c.13-.03.26.06.29.19.03.13-.06.26-.19.29l-9.54,2.03s-.03,0-.05,0Z"/>
  <path class="cls-1" d="M254.46,103.05c-.1,0-.2-.07-.23-.17-.04-.13.03-.26.16-.31l9.28-3.01c.13-.04.26.03.31.16.04.13-.03.26-.16.31l-9.28,3.01s-.05.01-.07.01Z"/>
  <path class="cls-1" d="M249.95,91.29c-.09,0-.18-.05-.22-.14-.05-.12,0-.27.12-.32l8.91-3.97c.12-.05.27,0,.32.12s0,.27-.12.32l-8.91,3.97s-.07.02-.1.02Z"/>
  <path class="cls-1" d="M237.37,69.5c-.07,0-.15-.03-.2-.1-.08-.11-.05-.26.05-.34l7.89-5.73c.11-.08.26-.06.34.05.08.11.05.26-.05.34l-7.89,5.73s-.09.05-.14.05Z"/>
  <path class="cls-1" d="M229.44,59.71c-.07,0-.13-.03-.18-.08-.09-.1-.08-.25.02-.34l7.25-6.53c.1-.09.25-.08.34.02.09.1.08.25-.02.34l-7.25,6.53s-.1.06-.16.06Z"/>
  <path class="cls-1" d="M220.53,50.8c-.06,0-.12-.02-.16-.06-.1-.09-.11-.24-.02-.34l6.53-7.25c.09-.1.24-.11.34-.02.1.09.11.24.02.34l-6.53,7.25c-.05.05-.11.08-.18.08Z"/>
  <path class="cls-1" d="M210.74,42.87s-.1-.01-.14-.05c-.11-.08-.13-.23-.05-.34l5.73-7.89c.08-.11.23-.13.34-.05.11.08.13.23.05.34l-5.73,7.89c-.05.07-.12.1-.2.1Z"/>
  <path class="cls-1" d="M188.95,30.29s-.07,0-.1-.02c-.12-.05-.18-.2-.12-.32l3.97-8.91c.05-.12.2-.18.32-.12.12.05.18.2.12.32l-3.97,8.91c-.04.09-.13.14-.22.14Z"/>
  <path class="cls-1" d="M177.19,25.78s-.05,0-.07-.01c-.13-.04-.2-.18-.16-.31l3.01-9.28c.04-.13.18-.2.31-.16.13.04.2.18.16.31l-3.01,9.28c-.03.1-.13.17-.23.17Z"/>
  <path class="cls-1" d="M165.02,22.52s-.03,0-.05,0c-.13-.03-.22-.16-.19-.29l2.03-9.54c.03-.13.16-.21.29-.19.13.03.22.16.19.29l-2.03,9.54c-.02.11-.13.19-.24.19Z"/>
</svg>