<?xml version="1.0" encoding="UTF-8"?>
<svg id="_레이어_1" data-name="레이어 1" xmlns="http://www.w3.org/2000/svg" viewBox="0 0 80 80">
  <defs>
    <style>
      .cls-1 {
        fill: none;
        stroke: #383838;
        stroke-linecap: round;
        stroke-linejoin: round;
        stroke-width: 1.5px;
      }
    </style>
  </defs>
  <path class="cls-1" d="M21.56,34.84l-6.06-11.06s9.14-6.94,18.66,0l-5.58,11.03"/>
  <path class="cls-1" d="M21.63,34.81h6.94v21.03c0,1.92-1.56,3.47-3.47,3.47h0c-1.92,0-3.47-1.56-3.47-3.47v-21.03h0Z"/>
  <path class="cls-1" d="M60,48.28c1.55-2.19,2.46-4.87,2.46-7.76,0-7.44-6.03-13.47-13.48-13.47s-13.48,6.03-13.48,13.47c0,2.89.91,5.56,2.46,7.76h22.03Z"/>
  <path class="cls-1" d="M33.88,51.14h30.62c0,4.28-3.48,7.76-7.76,7.76h-15.11c-4.28,0-7.76-3.48-7.76-7.76h0Z"/>
</svg>