<?xml version="1.0" encoding="UTF-8"?>
<svg id="_레이어_1" data-name="레이어 1" xmlns="http://www.w3.org/2000/svg" viewBox="0 0 120 152.68">
  <defs>
    <style>
      .cls-1 {
        fill: #ff543e;
      }

      .cls-1, .cls-2, .cls-3 {
        stroke-width: 0px;
      }

      .cls-2 {
        fill: #36383a;
      }

      .cls-3 {
        fill: #eaebe6;
      }
    </style>
  </defs>
  <g>
    <rect class="cls-1" x="0" width="120" height="120" rx="20" ry="20"/>
    <circle class="cls-3" cx="60" cy="60" r="40.48"/>
    <path class="cls-2" d="M60,60l28.62,28.62c-7.59,7.59-17.89,11.86-28.62,11.86-22.21,0-40.48-18.27-40.48-40.48S37.79,19.52,60,19.52v40.48Z"/>
  </g>
  <g>
    <path class="cls-1" d="M21.87,132l5.23,12.7h.24l5.2-12.7h5.9v20.19h-4.63v-12.56h-.17l-4.93,12.44h-2.98l-4.92-12.48h-.17v12.6h-4.63v-20.19h5.87Z"/>
    <path class="cls-1" d="M44.45,151.49c-1.15-.65-2.03-1.57-2.64-2.75-.61-1.18-.92-2.54-.92-4.08s.31-2.93.92-4.1c.61-1.17,1.49-2.08,2.64-2.73,1.15-.65,2.5-.98,4.05-.98s2.9.33,4.06.98c1.15.65,2.03,1.56,2.65,2.73s.92,2.54.92,4.1-.31,2.91-.92,4.08c-.61,1.18-1.5,2.1-2.65,2.75-1.15.65-2.51.98-4.06.98s-2.9-.32-4.05-.98ZM50.06,148.39c.42-.36.73-.86.94-1.52.21-.65.31-1.41.31-2.25s-.1-1.58-.31-2.23c-.21-.65-.52-1.15-.94-1.51-.42-.36-.93-.54-1.52-.54s-1.12.18-1.55.54c-.43.36-.76.86-.98,1.5-.22.64-.33,1.39-.33,2.24s.11,1.62.33,2.27.55,1.15.98,1.51c.43.36.95.54,1.55.54s1.1-.18,1.52-.54Z"/>
    <path class="cls-1" d="M56.7,152.19l6.83-20.19h6.29l6.85,20.19h-5.1l-4.8-15.2h-.17l-4.8,15.2h-5.1ZM72.12,144.23v3.64h-10.94v-3.64h10.94Z"/>
    <path class="cls-1" d="M78.79,137.05h4.54v2.73h.17c.27-.98.72-1.71,1.34-2.2.62-.49,1.36-.74,2.22-.74.44,0,.88.06,1.34.17v4.1c-.2-.07-.49-.13-.86-.18-.37-.05-.7-.07-1.01-.07-.59,0-1.11.12-1.56.38-.46.25-.82.61-1.08,1.07-.26.46-.4.99-.4,1.59v8.3h-4.7v-15.14Z"/>
    <path class="cls-1" d="M92.8,151.53c-1.15-.62-2.03-1.52-2.65-2.69s-.93-2.56-.93-4.17.31-2.92.93-4.11,1.49-2.1,2.63-2.75c1.13-.65,2.45-.97,3.95-.97s2.7.3,3.79.89,1.95,1.47,2.57,2.63c.61,1.16.92,2.56.92,4.18v1.21h-13.08v-2.77h8.7c0-.53-.12-1-.37-1.42-.25-.42-.58-.74-1-.98-.42-.23-.9-.35-1.44-.35s-1.06.12-1.51.37c-.45.25-.79.59-1.05,1.02-.25.43-.39.91-.4,1.44v2.77c0,.64.12,1.21.38,1.69.25.49.61.86,1.08,1.12.47.26,1.02.39,1.64.39.42,0,.8-.06,1.16-.18.35-.12.65-.29.9-.49.25-.21.43-.46.55-.75h4.39c-.19.97-.59,1.81-1.21,2.54-.62.73-1.43,1.29-2.44,1.69s-2.15.59-3.44.59c-1.56,0-2.92-.31-4.06-.93Z"/>
  </g>
</svg>