<?xml version="1.0" encoding="UTF-8"?>
<svg id="_레이어_1" data-name="레이어 1" xmlns="http://www.w3.org/2000/svg" viewBox="0 0 80 80">
  <defs>
    <style>
      .cls-1 {
        fill: none;
        stroke: #383838;
        stroke-linecap: round;
        stroke-linejoin: round;
        stroke-width: 1.5px;
      }
    </style>
  </defs>
  <rect class="cls-1" x="26.9" y="41.33" width="8.31" height="28.75" rx="4.15" ry="4.15"/>
  <path class="cls-1" d="M51.18,41.65c1.5.63,2.56,2.11,2.56,3.83v20.45c0,2.29-1.86,4.15-4.15,4.15h0c-2.29,0-4.15-1.86-4.15-4.15v-20.45c0-2.29,1.86-4.15,4.15-4.15h0c.57,0,1.11.11,1.6.32"/>
  <path class="cls-1" d="M51.18,41.65v-8.12c3.29-1.18,5.75-5.93,5.75-11.61,0-6.57-3.29-11.9-7.35-11.9s-7.35,5.33-7.35,11.9c0,5.68,2.46,10.43,5.75,11.61v8.12"/>
  <path class="cls-1" d="M32.71,41.65v-10.16c.55-.12,2.75-.67,4.3-2.8,1.44-1.96,1.42-4.01,1.39-4.62-.43-4.05-.85-8.09-1.28-12.14-.05-.89-.55-1.64-1.28-1.92-.56-.21-1.08-.07-1.28,0v12.78h-2.24v-12.78h-3.19v12.78h-2.24v-12.78c-.2-.07-.72-.21-1.28,0-.73.27-1.23,1.03-1.28,1.92-.43,4.05-.85,8.09-1.28,12.14-.02.59-.04,2.77,1.53,4.78,1.7,2.19,4.06,2.64,4.6,2.73v10.18"/>
</svg>